<svg width="98" height="56" viewBox="0 0 98 56" fill="none" xmlns="http://www.w3.org/2000/svg">
<path d="M1.39764 49.99C0.490222 49.6572 0.024342 48.6519 0.357068 47.7445L5.77916 32.9572C6.11189 32.0498 7.11722 31.5839 8.02464 31.9166C8.93206 32.2494 9.39795 33.2547 9.06522 34.1621L4.24558 47.3064L17.3898 52.126C18.2972 52.4587 18.7631 53.4641 18.4304 54.3715C18.0977 55.2789 17.0923 55.7448 16.1849 55.4121L1.39764 49.99ZM73.3425 1.28255C73.6528 0.367234 74.6464 -0.123209 75.5617 0.187128C76.477 0.49746 76.9675 1.49105 76.6571 2.40637L73.3425 1.28255ZM1.2643 46.7591C24.3707 36.0514 42.2695 29.0954 55.9769 24.9061C69.6518 20.7268 79.2781 19.2619 85.791 19.6474C92.2593 20.0303 96.267 22.3224 97.4397 26.2822C98.5327 29.9725 96.8229 34.2127 94.2982 37.7406C91.7091 41.3586 87.9328 44.7101 84.0016 46.7632C80.1493 48.7751 75.6703 49.7688 72.0325 47.7707C68.3172 45.73 66.3277 41.0578 66.3398 33.782C66.3519 26.4394 68.3806 15.9175 73.3425 1.28255L76.6571 2.40637C71.7441 16.8971 69.851 27.0009 69.8398 33.7878C69.8284 40.6414 71.714 43.6026 73.7175 44.703C75.7985 45.846 78.882 45.4885 82.3813 43.6609C85.8017 41.8745 89.166 38.8981 91.4519 35.7038C93.8022 32.4195 94.7019 29.3629 94.0838 27.276C93.5456 25.4586 91.522 23.4928 85.5841 23.1413C79.6908 22.7924 70.5358 24.1164 56.9998 28.2533C43.4963 32.3803 25.7544 39.2678 2.7359 49.9347L1.2643 46.7591Z" fill="white"/>
</svg>
