<svg width="36" height="41" viewBox="0 0 36 41" fill="none" xmlns="http://www.w3.org/2000/svg">
<path d="M31.8781 13.8482C32.2769 13.8482 32.6387 14.0222 32.9246 14.3162C33.1911 14.6302 33.3253 15.0202 33.2864 15.4322C33.2864 15.5682 32.2205 29.0481 31.6116 34.722C31.2304 38.204 28.9858 40.318 25.6188 40.376C23.0298 40.434 20.4993 40.454 18.0076 40.454C15.3622 40.454 12.7753 40.434 10.2641 40.376C7.00996 40.298 4.76337 38.146 4.40158 34.722C3.77525 29.0281 2.72879 15.5682 2.70934 15.4322C2.68989 15.0202 2.82215 14.6302 3.09058 14.3162C3.35511 14.0222 3.73635 13.8482 4.13704 13.8482H31.8781ZM22.1295 0.453956C23.8976 0.453956 25.477 1.68794 25.9341 3.44793L26.2609 4.90791C26.5254 6.0979 27.5563 6.93989 28.7428 6.93989H34.5742C35.3523 6.93989 36 7.58588 36 8.40788V9.16787C36 9.96986 35.3523 10.6359 34.5742 10.6359H1.42771C0.64772 10.6359 0 9.96986 0 9.16787V8.40788C0 7.58588 0.64772 6.93989 1.42771 6.93989H7.25913C8.4437 6.93989 9.47461 6.0979 9.74109 4.90991L10.0465 3.54592C10.5211 1.68794 12.083 0.453956 13.8705 0.453956H22.1295Z" fill="#F8F8F8"/>
</svg>
