<svg width="18" height="18" viewBox="0 0 18 18" fill="none" xmlns="http://www.w3.org/2000/svg">
<path fill-rule="evenodd" clip-rule="evenodd" d="M9 0C4.02991 0 0 4.13058 0 9.22951C0 13.3078 2.57946 16.7634 6.15536 17.9849C6.60536 18.0693 6.77009 17.784 6.77009 17.5389C6.77009 17.3179 6.76205 16.7393 6.75804 15.9678C4.25491 16.5263 3.72455 14.7302 3.72455 14.7302C3.31473 13.6655 2.72411 13.3802 2.72411 13.3802C1.90848 12.8056 2.78438 12.8176 2.78438 12.8176C3.68839 12.8819 4.1625 13.7699 4.1625 13.7699C4.96607 15.1803 6.26786 14.7744 6.78214 14.5374C6.8625 13.9427 7.09554 13.5329 7.35268 13.3038C5.3558 13.0708 3.25446 12.2792 3.25446 8.74332C3.25446 7.73478 3.60402 6.91108 4.17857 6.26819C4.08616 6.03514 3.77679 5.09491 4.26696 3.8252C4.26696 3.8252 5.02232 3.57608 6.74196 4.76945C7.46116 4.56453 8.22857 4.46408 8.99598 4.46006C9.75937 4.46408 10.5308 4.56453 11.25 4.76945C12.9696 3.57608 13.721 3.8252 13.721 3.8252C14.2112 5.09491 13.9018 6.03514 13.8094 6.26819C14.3839 6.9151 14.7335 7.7388 14.7335 8.74332C14.7335 12.2873 12.6281 13.0668 10.6232 13.2958C10.9446 13.5811 11.2339 14.1436 11.2339 15.0035C11.2339 16.237 11.2219 17.2335 11.2219 17.5349C11.2219 17.78 11.3826 18.0693 11.8406 17.9768C15.4246 16.7594 18 13.3038 18 9.22951C18 4.13058 13.9701 0 9 0Z" fill="#BABABA"/>
</svg>
