<svg width="18" height="18" viewBox="0 0 18 18" fill="none" xmlns="http://www.w3.org/2000/svg">
<path d="M10.6399 7.72168C9.86991 7.72168 9.52515 8.14511 9.33265 8.44238V7.82464H7.88184C7.90069 8.23356 7.88184 12.1898 7.88184 12.1898H9.33265V9.75145C9.33265 9.62094 9.34172 9.49043 9.38014 9.39762C9.48528 9.13661 9.72382 8.86653 10.1248 8.86653C10.6497 8.86653 10.8596 9.26712 10.8596 9.85368V12.1894H12.3104H12.3108V9.68583C12.3108 8.34558 11.5948 7.72168 10.6399 7.72168ZM9.33229 8.4576H9.32287C9.32613 8.45253 9.32975 8.44781 9.33229 8.44274V8.4576Z" fill="#BABABA"/>
<path d="M7.07777 7.82422H5.62695V12.1894H7.07777V7.82422Z" fill="#BABABA"/>
<path d="M9 0C4.03742 0 0 4.03742 0 9C0 13.9626 4.03742 18 9 18C13.9626 18 18 13.9626 18 9C18 4.03742 13.9626 0 9 0ZM13.7726 13.0708C13.7726 13.4529 13.455 13.7632 13.0624 13.7632H4.8763C4.48477 13.7632 4.16684 13.4532 4.16684 13.0708V4.78929C4.16684 4.40683 4.48477 4.09687 4.8763 4.09687H13.0624C13.4547 4.09687 13.7726 4.40719 13.7726 4.78929V13.0708Z" fill="#BABABA"/>
<path d="M6.36274 5.71973C5.86681 5.71973 5.54199 6.04527 5.54199 6.47377C5.54199 6.89249 5.85702 7.22782 6.34353 7.22782H6.35296C6.85904 7.22782 7.17407 6.89249 7.17407 6.47377C7.16428 6.04563 6.8594 5.71973 6.36274 5.71973Z" fill="#BABABA"/>
</svg>
