<svg width="78" height="37" viewBox="0 0 78 37" fill="none" xmlns="http://www.w3.org/2000/svg">
<path d="M7.10449 9.81836C6.486 9.85091 5.96517 10.0869 5.54199 10.5264C5.13509 10.9658 4.84212 11.4704 4.66309 12.04C4.48405 12.5934 4.39453 13.1631 4.39453 13.749C4.39453 14.335 4.47591 14.9128 4.63867 15.4824C4.81771 16.0521 5.11882 16.5566 5.54199 16.9961C5.96517 17.4193 6.486 17.6471 7.10449 17.6797H15.1611C16.1865 17.7773 16.748 18.3389 16.8457 19.3643C16.8294 19.82 16.6585 20.2025 16.333 20.5117C16.0075 20.8047 15.6169 20.9512 15.1611 20.9512H7.37305H6.25C5.11068 20.8861 4.1748 20.4548 3.44238 19.6572C2.70996 18.8434 2.18099 17.9238 1.85547 16.8984C1.54622 15.873 1.3916 14.8232 1.3916 13.749C1.3916 12.9515 1.48112 12.1621 1.66016 11.3809C1.83919 10.5996 2.11589 9.85905 2.49023 9.15918C2.88086 8.44303 3.39355 7.83268 4.02832 7.32812C4.67936 6.82357 5.41992 6.56315 6.25 6.54688H6.71387H15.1611C16.1865 6.64453 16.748 7.20605 16.8457 8.23145C16.8457 8.68717 16.6748 9.06966 16.333 9.37891C16.0075 9.67188 15.6169 9.81836 15.1611 9.81836H7.10449ZM24.585 17.167C24.585 16.7113 24.7396 16.3288 25.0488 16.0195C25.3743 15.694 25.765 15.5312 26.2207 15.5312H29.9561L29.3213 13.7246C29.0609 13.0573 28.8005 12.4307 28.54 11.8447C28.2959 11.2425 28.0111 10.6973 27.6855 10.209C27.3926 9.7207 27.0589 9.46029 26.6846 9.42773C26.2939 9.46029 25.944 9.7207 25.6348 10.209C25.3255 10.6973 25.0407 11.2425 24.7803 11.8447C24.5361 12.4307 24.2839 13.0573 24.0234 13.7246L21.7041 20.0723C21.5413 20.4141 21.3298 20.6989 21.0693 20.9268C20.8252 21.1383 20.4508 21.2441 19.9463 21.2441C19.4743 21.2441 19.0837 21.0814 18.7744 20.7559C18.4814 20.4303 18.3512 20.0397 18.3838 19.584C18.4001 19.3724 18.4489 19.1771 18.5303 18.998L21.2158 12.0645C21.9645 10.2415 22.7132 8.76855 23.4619 7.64551C24.1943 6.53874 25.2686 5.97721 26.6846 5.96094C28.0843 5.97721 29.1504 6.53874 29.8828 7.64551C30.6315 8.736 31.3802 10.209 32.1289 12.0645L34.8145 18.998C34.8958 19.1771 34.9447 19.3724 34.9609 19.584C34.9935 20.0397 34.8551 20.4303 34.5459 20.7559C34.2529 21.0814 33.8704 21.2441 33.3984 21.2441C32.8613 21.2441 32.4626 21.1383 32.2021 20.9268C31.958 20.6989 31.7546 20.4141 31.5918 20.0723L31.1279 18.8027H26.2207C25.765 18.8027 25.3825 18.64 25.0732 18.3145C24.7477 18.0052 24.585 17.6227 24.585 17.167ZM40.6982 19.7061C40.6006 20.6826 40.0635 21.2116 39.0869 21.293C38.6312 21.293 38.2324 21.1465 37.8906 20.8535C37.5651 20.5443 37.4023 20.1618 37.4023 19.7061V8.13379C37.4186 7.67806 37.5895 7.30371 37.915 7.01074C38.2406 6.7015 38.6312 6.54688 39.0869 6.54688H40.2832H43.2861H49.3164C49.4141 6.54688 49.5117 6.55501 49.6094 6.57129H49.7559C50.8952 6.60384 51.8311 6.86426 52.5635 7.35254C53.2959 7.84082 53.8249 8.40234 54.1504 9.03711C54.4759 9.6556 54.6387 10.2822 54.6387 10.917C54.6387 11.568 54.4759 12.2109 54.1504 12.8457C53.8411 13.4642 53.3122 14.0176 52.5635 14.5059C51.8311 14.9941 50.8952 15.2546 49.7559 15.2871H45.459C45.5892 16.1009 45.8577 16.7031 46.2646 17.0938C46.6553 17.4844 47.1517 17.6797 47.7539 17.6797H53.0273C53.4831 17.696 53.8574 17.8669 54.1504 18.1924C54.4596 18.5179 54.6143 18.9085 54.6143 19.3643C54.598 19.8037 54.4352 20.1781 54.126 20.4873C53.833 20.7803 53.4668 20.9349 53.0273 20.9512H47.3145C46.11 20.9674 45.0195 20.4954 44.043 19.5352C43.0664 18.5749 42.4723 17.4355 42.2607 16.1172C41.9678 14.6523 41.8213 13.8304 41.8213 13.6514C41.8213 13.1956 41.9759 12.8132 42.2852 12.5039C42.6107 12.1784 43.0013 12.0156 43.457 12.0156H49.9023C50.2116 11.9993 50.4639 11.9342 50.6592 11.8203C50.8708 11.6901 51.0254 11.5518 51.123 11.4053C51.2207 11.2425 51.2695 11.0798 51.2695 10.917C51.2695 10.7542 51.2207 10.5996 51.123 10.4531C51.0254 10.2904 50.8708 10.152 50.6592 10.0381C50.4639 9.90788 50.2116 9.83464 49.9023 9.81836H43.2861H41.333C40.9098 9.83464 40.6982 10.0462 40.6982 10.4531V19.7061ZM58.9111 6.15625C59.3669 6.15625 59.7575 6.31087 60.083 6.62012C60.4085 6.91309 60.5794 7.28743 60.5957 7.74316V13.627C60.5794 14.2943 60.6201 14.9128 60.7178 15.4824C60.8317 16.0358 61.0921 16.5322 61.499 16.9717C61.9059 17.4111 62.4186 17.6471 63.0371 17.6797H70.8496C71.3053 17.696 71.6797 17.8669 71.9727 18.1924C72.2819 18.5179 72.4365 18.9085 72.4365 19.3643C72.4202 19.8037 72.2575 20.1781 71.9482 20.4873C71.6553 20.7803 71.2891 20.9349 70.8496 20.9512H62.207C61.0677 20.8861 60.1237 20.5036 59.375 19.8037C58.6426 19.0876 58.1136 18.2168 57.7881 17.1914C57.4788 16.166 57.3161 15.0755 57.2998 13.9199V7.74316C57.3161 7.30371 57.4788 6.9375 57.7881 6.64453C58.0973 6.33529 58.4717 6.17253 58.9111 6.15625Z" fill="white"/>
<path d="M65.148 27.5157L62.9154 25.2831C62.7413 25.109 62.5051 25.0111 62.2588 25.0111C62.0125 25.0111 61.7763 25.109 61.6021 25.2831C61.428 25.4573 61.3301 25.6935 61.3301 25.9398C61.3301 26.186 61.428 26.4222 61.6021 26.5964L65.5835 30.5778L63.6167 30.0508C63.4988 30.0191 63.3759 30.0109 63.2549 30.0268C63.134 30.0426 63.0173 30.0822 62.9116 30.1431C62.8059 30.2041 62.7133 30.2853 62.639 30.3821C62.5647 30.4789 62.5102 30.5893 62.4786 30.7072C62.447 30.8251 62.439 30.948 62.4549 31.069C62.4709 31.1899 62.5105 31.3066 62.5715 31.4122C62.6326 31.5178 62.7139 31.6104 62.8107 31.6846C62.9076 31.7588 63.0181 31.8133 63.136 31.8447C66.4612 33.0314 67.8999 33.1688 69.3505 31.7182C69.6954 31.3732 69.969 30.9638 70.1557 30.5131C70.3423 30.0624 70.4384 29.5794 70.4384 29.0916C70.4384 28.6038 70.3423 28.1208 70.1557 27.6701C69.969 27.2195 69.6954 26.81 69.3505 26.4651L68.0372 25.1518C67.863 24.9776 67.6268 24.8798 67.3805 24.8798C67.1343 24.8798 66.8981 24.9776 66.7239 25.1518C66.5498 25.3259 66.4519 25.5621 66.4519 25.8084C66.4519 26.0547 66.5498 26.2909 66.7239 26.4651" fill="#E7805E"/>
<path d="M66.7238 26.4654L66.3298 26.0714C66.1556 25.8972 65.9194 25.7994 65.6731 25.7994C65.4269 25.7994 65.1907 25.8972 65.0165 26.0714C64.8423 26.2455 64.7445 26.4817 64.7445 26.728C64.7445 26.9743 64.8423 27.2105 65.0165 27.3847L65.1478 27.516" fill="#E7805E"/>
<path d="M67.3145 33.7892C68.3519 31.881 69.1934 31.1042 71.0191 30.0846" stroke="white" stroke-linecap="round"/>
<path d="M5.17652 25.98C6.36319 25.98 7.27652 26.29 7.91652 26.91C8.56319 27.53 8.88652 28.3933 8.88652 29.5C8.88652 30.6067 8.56319 31.4667 7.91652 32.08C7.27652 32.6933 6.36319 33 5.17652 33H3.20652V25.98H5.17652ZM5.17652 32.62C6.23652 32.62 7.04319 32.3467 7.59652 31.8C8.14986 31.2467 8.42652 30.48 8.42652 29.5C8.42652 28.5133 8.14986 27.7433 7.59652 27.19C7.04319 26.6367 6.23652 26.36 5.17652 26.36H3.65652V32.62H5.17652ZM12.1475 26.36V29.29H14.9475V29.67H12.1475V32.62H15.2475V33H11.6975V25.98H15.2475V26.36H12.1475ZM23.3596 25.98L20.6796 33H20.1796L17.5096 25.98H17.9996L20.4296 32.47L22.8796 25.98H23.3596ZM27.9264 33.07C27.473 33.07 27.0764 32.99 26.7364 32.83C26.3964 32.67 26.1297 32.4533 25.9364 32.18C25.7497 31.9067 25.643 31.6033 25.6164 31.27H26.0864C26.1397 31.6367 26.3097 31.9633 26.5964 32.25C26.8897 32.5367 27.333 32.68 27.9264 32.68C28.273 32.68 28.573 32.6167 28.8264 32.49C29.0864 32.3633 29.2864 32.19 29.4264 31.97C29.5664 31.75 29.6364 31.5067 29.6364 31.24C29.6364 30.9 29.553 30.63 29.3864 30.43C29.2264 30.23 29.023 30.08 28.7764 29.98C28.5364 29.88 28.2097 29.7733 27.7964 29.66C27.343 29.54 26.9764 29.42 26.6964 29.3C26.423 29.18 26.1897 28.9967 25.9964 28.75C25.8097 28.4967 25.7164 28.1533 25.7164 27.72C25.7164 27.3867 25.803 27.0833 25.9764 26.81C26.1564 26.53 26.4097 26.31 26.7364 26.15C27.063 25.99 27.4397 25.91 27.8664 25.91C28.4864 25.91 28.9864 26.0633 29.3664 26.37C29.7464 26.6767 29.973 27.0533 30.0464 27.5H29.5664C29.5264 27.32 29.4364 27.1367 29.2964 26.95C29.163 26.7633 28.9697 26.61 28.7164 26.49C28.4697 26.3633 28.173 26.3 27.8264 26.3C27.3597 26.3 26.9664 26.43 26.6464 26.69C26.3264 26.9433 26.1664 27.2833 26.1664 27.71C26.1664 28.05 26.2497 28.3233 26.4164 28.53C26.583 28.73 26.7864 28.8833 27.0264 28.99C27.273 29.09 27.603 29.1933 28.0164 29.3C28.4764 29.4267 28.8397 29.55 29.1064 29.67C29.3797 29.7833 29.6097 29.9667 29.7964 30.22C29.9897 30.4667 30.0864 30.8033 30.0864 31.23C30.0864 31.5433 30.003 31.84 29.8364 32.12C29.6697 32.4 29.423 32.63 29.0964 32.81C28.7764 32.9833 28.3864 33.07 27.9264 33.07Z" fill="white"/>
</svg>
