<svg width="21" height="21" viewBox="0 0 21 21" fill="none" xmlns="http://www.w3.org/2000/svg">
<path d="M4.16667 0C3.0616 0 2.00179 0.438987 1.22039 1.22039C0.438987 2.00179 0 3.0616 0 4.16667V7.29167H2.08333V4.16667C2.08333 3.61413 2.30283 3.08423 2.69353 2.69353C3.08423 2.30283 3.61413 2.08333 4.16667 2.08333H16.6667C17.2192 2.08333 17.7491 2.30283 18.1398 2.69353C18.5305 3.08423 18.75 3.61413 18.75 4.16667V16.6667C18.75 17.2192 18.5305 17.7491 18.1398 18.1398C17.7491 18.5305 17.2192 18.75 16.6667 18.75H4.16667C3.61413 18.75 3.08423 18.5305 2.69353 18.1398C2.30283 17.7491 2.08333 17.2192 2.08333 16.6667V13.5417H0V16.6667C0 17.7717 0.438987 18.8315 1.22039 19.6129C2.00179 20.3943 3.0616 20.8333 4.16667 20.8333H16.6667C17.7717 20.8333 18.8315 20.3943 19.6129 19.6129C20.3943 18.8315 20.8333 17.7717 20.8333 16.6667V4.16667C20.8333 3.0616 20.3943 2.00179 19.6129 1.22039C18.8315 0.438987 17.7717 0 16.6667 0H4.16667Z" fill="#F8F8F8"/>
<path d="M1.04167 9.37497C0.7654 9.37497 0.500447 9.48472 0.305097 9.68007C0.109747 9.87542 0 10.1404 0 10.4166C0 10.6929 0.109747 10.9579 0.305097 11.1532C0.500447 11.3486 0.7654 11.4583 1.04167 11.4583H11.0229L8.38229 14.1C8.19254 14.2964 8.08755 14.5596 8.08992 14.8327C8.0923 15.1058 8.20185 15.3671 8.39498 15.5602C8.58811 15.7533 8.84938 15.8629 9.1225 15.8653C9.39562 15.8676 9.65875 15.7626 9.85521 15.5729L14.226 11.2021C14.3386 11.1045 14.4288 10.9838 14.4907 10.8483C14.5525 10.7128 14.5846 10.5656 14.5846 10.4166C14.5846 10.2677 14.5525 10.1205 14.4907 9.98495C14.4288 9.84945 14.3386 9.72881 14.226 9.63122L9.85417 5.26039C9.75808 5.1609 9.64313 5.08155 9.51605 5.02695C9.38896 4.97236 9.25227 4.94362 9.11396 4.94242C8.97565 4.94122 8.83848 4.96758 8.71047 5.01995C8.58245 5.07233 8.46614 5.14967 8.36834 5.24748C8.27053 5.34528 8.19319 5.46159 8.14081 5.58961C8.08844 5.71762 8.06208 5.85479 8.06328 5.9931C8.06448 6.13141 8.09322 6.2681 8.14781 6.39519C8.2024 6.52227 8.28176 6.63722 8.38125 6.73331L11.0229 9.37497H1.04167Z" fill="#F8F8F8"/>
</svg>
