<svg width="18" height="18" viewBox="0 0 18 18" fill="none" xmlns="http://www.w3.org/2000/svg">
<path fill-rule="evenodd" clip-rule="evenodd" d="M9 0C13.9672 0 18 4.03277 18 9C18 13.9672 13.9672 18 9 18C4.03277 18 0 13.9672 0 9C0 4.03277 4.03277 0 9 0ZM7.41477 13.7868C11.3974 13.7868 13.575 10.4867 13.575 7.62662C13.575 7.53233 13.575 7.43804 13.5705 7.34822C13.9925 7.04292 14.3607 6.66127 14.6526 6.22575C14.2664 6.39636 13.8489 6.51312 13.4088 6.56698C13.8579 6.29757 14.1991 5.87552 14.3607 5.36818C13.9431 5.61512 13.4807 5.7947 12.9868 5.89349C12.5917 5.47144 12.0304 5.21104 11.4063 5.21104C10.212 5.21104 9.24219 6.18086 9.24219 7.37518C9.24219 7.5458 9.26016 7.71191 9.30055 7.86906C7.50009 7.77927 5.90614 6.9172 4.83757 5.60612C4.65346 5.92492 4.5457 6.29757 4.5457 6.6927C4.5457 7.44251 4.92736 8.10703 5.51106 8.49315C5.15633 8.48419 4.82407 8.3854 4.53224 8.22379V8.25072C4.53224 9.30136 5.27755 10.1724 6.26984 10.3745C6.09026 10.4238 5.89718 10.4508 5.69964 10.4508C5.56042 10.4508 5.42573 10.4373 5.29105 10.4104C5.56492 11.2724 6.36413 11.8966 7.31152 11.9145C6.57067 12.4937 5.63678 12.8394 4.62203 12.8394C4.44691 12.8394 4.2763 12.8304 4.10569 12.808C5.05308 13.4276 6.19351 13.7868 7.41477 13.7868Z" fill="#BABABA"/>
</svg>
