<svg width="25" height="26" viewBox="0 0 25 26" fill="none" xmlns="http://www.w3.org/2000/svg">
<path d="M17.852 0.920898C22.3149 0.920898 24.9879 3.36019 25 7.43304V19.4088C25 23.4816 22.3391 25.9209 17.8641 25.9209H13.897C13.3882 25.8697 13.0031 25.4774 13.0031 25.0103C13.0031 24.5432 13.3882 24.1509 13.897 24.0997H17.852C21.2627 24.0997 22.9802 22.5213 22.9802 19.4088V7.43304C22.9802 4.32046 21.2627 2.74209 17.852 2.74209H7.13595C3.7252 2.74209 1.99565 4.32046 1.99565 7.43304V19.4088C1.99565 22.5213 3.7252 24.0997 7.13595 24.0997C7.6447 24.1509 8.02979 24.5432 8.02979 25.0103C8.02979 25.4774 7.6447 25.8697 7.13595 25.9209C2.67296 25.9209 0 23.4816 0 19.4088V7.43304C0 3.34915 2.67296 0.920898 7.13595 0.920898H17.852ZM17.4891 17.8083C18.0369 17.8083 18.4809 18.2135 18.4809 18.7134C18.4809 19.2133 18.0369 19.6185 17.4891 19.6185H7.4746C6.92686 19.6185 6.48283 19.2133 6.48283 18.7134C6.48283 18.2135 6.92686 17.8083 7.4746 17.8083H17.4891ZM17.4891 12.5103C17.8718 12.4718 18.245 12.6364 18.4496 12.9341C18.6542 13.2318 18.6542 13.61 18.4496 13.9077C18.245 14.2054 17.8718 14.37 17.4891 14.3315H7.4746C6.96584 14.2803 6.58075 13.888 6.58075 13.4209C6.58075 12.9538 6.96584 12.5615 7.4746 12.5103H17.4891ZM11.2966 7.22333C11.8053 7.27452 12.1904 7.66682 12.1904 8.13392C12.1904 8.60102 11.8053 8.99333 11.2966 9.04452H7.4867C6.97794 8.99333 6.59285 8.60102 6.59285 8.13392C6.59285 7.66682 6.97794 7.27452 7.4867 7.22333H11.2966Z" fill="#F8F8F8"/>
</svg>
